Coordinates
version=1
nRows=5
nColumns=63
inDegrees=yes

Units are S.I. units (second, meters, Newtons, ...)
If the header above contains a line with 'inDegrees', this indicates whether rotational values are in degrees (yes) or radians (no).

endheader
time	pelvis_tilt	pelvis_list	pelvis_rotation	pelvis_tx	pelvis_ty	pelvis_tz	hip_flexion_r	hip_adduction_r	hip_rotation_r	knee_angle_r	knee_angle_r_beta	ankle_angle_r	subtalar_angle_r	mtp_angle_r	hip_flexion_l	hip_adduction_l	hip_rotation_l	knee_angle_l	knee_angle_l_beta	ankle_angle_l	subtalar_angle_l	mtp_angle_l	L5_S1_Flex_Ext	L5_S1_Lat_Bending	L5_S1_axial_rotation	L4_L5_Flex_Ext	L4_L5_Lat_Bending	L4_L5_axial_rotation	L3_L4_Flex_Ext	L3_L4_Lat_Bending	L3_L4_axial_rotation	L2_L3_Flex_Ext	L2_L3_Lat_Bending	L2_L3_axial_rotation	L1_L2_Flex_Ext	L1_L2_Lat_Bending	L1_L2_axial_rotation	L1_T12_Flex_Ext	L1_T12_Lat_Bending	L1_T12_axial_rotation	Abs_r3	Abs_r2	Abs_r1	Abs_t1	Abs_t2	neck_flexion	neck_bending	neck_rotation	arm_flex_r	arm_add_r	arm_rot_r	elbow_flex_r	pro_sup_r	wrist_flex_r	wrist_dev_r	arm_flex_l	arm_add_l	arm_rot_l	elbow_flex_l	pro_sup_l	wrist_flex_l	wrist_dev_l
      2.32653061	     -0.87153134	     -2.56408805	     87.94040845	      0.21167248	      0.76842254	      0.80143779	      5.23095506	     -2.23899785	     19.63616173	      1.83623904	      0.03204842	     22.60361709	    -12.27917260	      0.00000000	      7.43011446	      1.79653684	    -10.95064298	     10.13613280	      0.17690889	     29.70129592	      7.59924115	      0.00000000	      0.14591088	     -0.22427406	     -0.79223732	      0.27097110	     -0.29828450	     -0.84175216	      0.23971698	     -0.54529995	     -0.84175216	      0.16676154	     -0.54529995	     -0.69320766	      0.13549284	     -0.45733966	     -0.64369282	      0.08337348	     -0.34740052	     -0.59417799	      1.04222683	     -2.53703303	     -4.40618632	      0.00000000	      0.00000000	     27.75844220	      2.85525318	     -1.37082790	     24.75446543	     -7.82440968	     24.30913348	    104.47406600	     88.59577722	      7.36171476	      7.25121986	     18.70688538	    -19.03551935	     32.03058541	     96.58395005	     88.56509472	      9.32175612	     -3.85020079
      2.34693878	     -0.67031618	     -2.86966247	     88.62050028	      0.20981423	      0.76700079	      0.80131657	      5.22662617	     -2.19414976	     19.52227647	      1.50920249	      0.02634055	     22.29628027	    -12.84906580	      0.00000000	      7.91663206	      1.65380184	    -10.47205161	     10.58274395	      0.18470373	     29.95668386	      7.69392366	      0.00000000	      0.22440843	     -0.20803413	     -0.75328608	      0.41674890	     -0.27668539	     -0.80036646	      0.36868062	     -0.50581419	     -0.80036646	      0.25647640	     -0.50581419	     -0.65912532	      0.20838567	     -0.42422320	     -0.61204494	      0.12822698	     -0.32224487	     -0.56496456	      1.60292701	     -2.35332370	     -4.18955118	      0.00000000	      0.00000000	     27.97885849	      1.68201152	     -2.41775203	     24.71173660	     -8.27154328	     27.56856189	     96.46721620	     89.00549250	     10.45721087	      4.47764503	     20.15408698	    -19.57585154	     37.78221518	     89.71987672	     88.68915945	     10.37460438	     -5.89721776
      2.36734694	     -0.42358015	     -3.16705618	     89.24692004	      0.20798074	      0.76568296	      0.80135697	      5.31797350	     -2.08847503	     19.24204755	      1.26786088	      0.02212835	     22.30951869	    -13.13996272	      0.00000000	      8.41189589	      1.47300157	    -10.05701893	     10.98722779	      0.19176330	     30.31936632	      7.83078106	      0.00000000	      0.29287685	     -0.19095983	     -0.65821138	      0.54390159	     -0.25397657	     -0.69934959	      0.48116737	     -0.46429973	     -0.69934959	      0.33472895	     -0.46429973	     -0.57593496	      0.27196544	     -0.38940528	     -0.53479675	      0.16734983	     -0.29579677	     -0.49365854	      2.09199003	     -2.16017577	     -3.66077423	      0.00000000	      0.00000000	     28.07266386	      0.48553054	     -3.98193449	     25.16720601	     -8.86793430	     30.85724667	     88.61307741	     89.19472629	     13.94850579	      3.95040678	     22.56642455	    -19.73913891	     44.50804717	     82.89594616	     88.80377524	      9.15471706	     -7.55725798
      2.38775510	     -0.17119304	     -3.35270853	     89.81387026	      0.20625685	      0.76447489	      0.80142248	      5.39354372	     -1.96641153	     18.59768886	      1.14174000	      0.01992712	     22.77293673	    -12.73930726	      0.00000000	      8.83604168	      1.28502148	     -9.71769379	     11.44125709	      0.19968761	     30.88053071	      8.01615911	      0.00000000	      0.34070719	     -0.17076564	     -0.55765307	      0.63272732	     -0.22711830	     -0.59250639	      0.55974784	     -0.41519958	     -0.59250639	      0.38939425	     -0.41519958	     -0.48794644	      0.31638070	     -0.34822530	     -0.45309312	      0.19468009	     -0.26451598	     -0.41823981	      2.43363738	     -1.93173510	     -3.10149910	      0.00000000	      0.00000000	     28.12122717	     -0.67544189	     -5.16869586	     26.15128694	     -9.30118187	     34.50999858	     80.73569648	     89.27528850	     18.18179565	      6.77452433	     25.38173780	    -19.53780626	     51.36426394	     76.51572141	     88.84415626	      6.28993745	     -7.27933454
      2.40816327	      0.19689017	     -3.53952822	     90.47079641	      0.20450088	      0.76336144	      0.80121364	      5.50857474	     -1.71516043	     17.65207147	      1.09881677	      0.01917797	     23.32375981	    -12.01553039	      0.00000000	      9.22517830	      0.99896903	     -9.21435360	     11.77942071	      0.20558968	     31.44456853	      8.26989583	      0.00000000	      0.39588177	     -0.13103443	     -0.47894319	      0.73519203	     -0.17427580	     -0.50887714	      0.65039416	     -0.31859712	     -0.50887714	      0.45245327	     -0.31859712	     -0.41907529	      0.36761581	     -0.26720541	     -0.38914134	      0.22620684	     -0.20297234	     -0.35920739	      2.82774389	     -1.48228771	     -2.66373834	      0.00000000	      0.00000000	     28.16383099	     -1.37219691	     -4.86985601	     27.29426329	     -9.44051167	     39.30755950	     72.18419102	     89.24619541	     21.46082646	     10.12947386	     27.80347024	    -18.57324394	     57.08471971	     70.39067353	     88.76565919	      5.90815797	     -3.23856684
